<svg id="Layer_1" xmlns="http://www.w3.org/2000/svg" width="2500" height="1988"><style>.st0{fill:#fff}</style><path class="st0" d="M1694.7 1142c-14.4 0-31.3-1.2-45.7-2.4-8.4-1.2-185.3-22.9-246.7-33.7-95.1-15.6-246.7-19.3-249.1-19.3 0 0-39.7-2.4-52.9-3.6-233.5-19.3-422.4-196.2-470.5-426-30.1-142-3.6-287.6 74.6-409.2 79.4-121.5 201-205.8 343-235.9 37.3-8.4 75.8-12 114.3-12 240.7 0 454.9 161.3 522.3 392.3 0 2.4 39.7 149.2 69.8 227.4 15.6 42.1 38.5 93.9 61.4 144.4 20.5 46.9 39.7 91.5 52.9 125.2 31.3 81.8 13.2 138.4-7.2 170.9-28.9 45.7-80.6 74.6-143.2 80.6-7.4 1.3-14.6 1.3-23 1.3zm-587.3-138.4c97.5 7.2 211.8 7.2 308.1 22.9 59 9.6 240.7 32.5 243.1 33.7 16.8 2.4 38.5 2.4 50.5 1.2 37.3-3.6 67.4-19.3 83-43.3 19.3-31.3 10.8-71 0-99.9-12-31.3-31.3-75.8-51.7-121.5-22.9-51.7-45.7-104.7-62.6-148-31.3-83-71-228.6-72.2-234.7-56.6-196.2-239.5-334.6-444-334.6-32.5 0-65 3.6-97.5 10.8-121.5 26.5-225 97.5-292.4 201s-90.3 227.4-63.8 349c40.9 195 200.9 347.8 399.5 363.4z"/><path class="st0" d="M947.3 562h6c3.6 0 8.4-1.2 14.4-2.4 16.8-4.8 21.7-10.8 31.3-22.9 8.4-10.8 14.4-21.7 22.9-43.3 8.4-20.5 16.8-65 25.3-91.5 8.4-27.7 26.5-37.3 34.9-40.9s18.1-2.4 31.3 1.2c14.4 4.8 27.7 20.5 42.1 44.5 14.4 24.1 21.7 54.2 22.9 77 1.2 22.9-2.4 52.9-16.8 78.2-15.6 27.7-46.9 62.6-103.5 72.2-56.6 9.6-84.2-8.4-99.9-24.1-7.2-7.2-10.8-13.2-15.6-20.5-2.4-3.6-3.6-7.2-4.8-9.6-.1-5.9-6.1-17.9 9.5-17.9M892 575.2c-2.4-3.6-4.8-3.6-9.6-3.6 0 0-12 3.6-26.5-8.4-14.4-12-26.5-28.9-38.5-52.9-13.2-24.1-20.5-39.7-26.5-44.5s-12-4.8-19.3 1.2c-6 6-16.8 27.7-18.1 48.1-1.2 19.3 0 44.5 2.4 67.4 3.6 21.7 10.8 42.1 15.6 51.7 7.2 13.2 20.5 28.9 30.1 34.9 9.6 7.2 24.1 13.2 37.3 12s25.3-8.4 34.9-20.5c9.6-12 14.4-28.9 16.8-39.7 3.6-14.4 3.6-22.9 3.6-30.1.2-7.2.2-12-2.2-15.6m-49.3 1202.2h-213v-163.7h-42.1V1982h42.1v-166.1h213V1982h40.9v-368.2h-40.9v163.6zm-659.5 45.7h111.9v91.5c-25.3 20.5-63.8 37.3-105.9 37.3-89.1 0-145.6-65-145.6-152.8v-1.2c0-81.8 59-151.6 139.6-151.6 51.7 0 84.2 16.8 111.9 42.1l26.5-31.3c-37.3-31.3-75.8-49.3-137.2-49.3C74.9 1606.6.3 1696.9.3 1797.9v1.2c0 105.9 72.2 190.1 187.7 190.1 62.6 0 114.3-25.3 148-56.6v-146.8H183.2v37.3zM1318 1606.5c-111.9 0-188.9 89.1-188.9 190.1v1.2c0 101.1 75.8 190.1 187.7 190.1 111.9 0 188.9-89.1 188.9-191.3v-1.2c0-99.8-74.6-188.9-187.7-188.9zm144.4 192.6c0 84.2-60.2 151.6-144.4 151.6s-145.6-68.6-145.6-152.8v-1.2c0-84.2 60.2-151.6 144.4-151.6 85.4-.1 145.6 68.5 145.6 154zm420-21.7c-80.6-16.8-99.9-37.3-99.9-72.2v-1.2c0-33.7 30.1-59 78.2-59 38.5 0 72.2 12 105.9 39.7l24.1-32.5c-37.3-30.1-75.8-45.7-130-45.7-69.8 0-121.5 42.1-121.5 101.1v1.2c0 60.2 38.5 87.8 123.9 105.9 77 16.8 96.3 36.1 96.3 69.8v1.2c0 36.1-32.5 62.6-81.8 62.6-50.5 0-87.8-16.8-126.4-51.7l-25.3 30.1c44.5 39.7 92.7 59 150.4 59 73.4 0 126.4-40.9 126.4-104.7v-1.2c-1.2-54.3-38.5-84.3-120.3-102.4zm328.5-163.7v38.5h123.9V1982h42.1v-329.7h122.7v-38.5h-288.7v-.1z"/></svg>