<svg xmlns="http://www.w3.org/2000/svg" width="2500" height="806"><path d="M1.1 528.5h170.4v85.2H1.1v-85.2zm255.6 0H427v85.2H256.7v-85.2zM.9 358.1h426.2v85.2H.9v-85.2zm.2-170.5h255.7v85.2H1.1v-85.2zm340.8 0h85.2v85.2h-85.2v-85.2z" fill="#0088c9"/><path d="M1666.5 187.7c-137.1 0-208 97.1-208 216.8 0 119.8 69.1 216.9 208 216.9s208-97.1 208-216.9c-.1-119.7-70.9-216.8-208-216.8zm103.7 217.2c-.1 77-26 139.4-103.8 139.4-77.7 0-103.7-62.4-103.7-139.4v-.4c.1-77 26-139.4 103.7-139.4s103.7 62.4 103.8 139.4v.4zm-717.8 210.7V16s79-11.2 85.1-12.1c6.9-.9 16.1 4 16.1 13.8V240c16.4-15.6 34.4-28.2 54.1-37.8 19.7-9.6 42.8-14.4 69.3-14.4 23 0 43.3 3.9 61.1 11.7 17.8 7.8 32.6 18.7 44.5 32.8 11.9 14.1 20.9 30.9 27.1 50.5 6.1 19.6 9.2 41.1 9.2 64.6v268h-101.3v-268c0-25.7-5.9-45.6-17.8-59.7-11.9-14.1-29.7-21.1-53.5-21.1-17.5 0-33.9 4-49.2 11.9-15.3 7.9-29.8 18.7-43.5 32.4v304.5h-101.2v.2zm1352 5.7c-69.7 0-113.4-40.6-113.4-116.3V280.5h-78.5l18-62.3c1.3-4.5 4.8-9.4 11.7-10.4l48.7-6.8 19.4-123s56.7-8 65.7-9.3c8.5-1.3 16.2 4.8 16.2 14.1V201h99.3v79.5h-99.3V502c0 30.2 18.4 41.8 36 41.8 10.8 0 25.5-5.7 36.5-10.8 6.8-3.1 17.3-.8 20.1 8.7 2.4 8.4 15.2 53.1 15.2 53.1-11.1 7.1-46 26.5-95.6 26.5zm-247.5-339.5c-19.7-6.4-56.8-16.7-92.1-16.7-36 0-64.2 12.4-64.2 42.4 0 37.4 61 48.3 102.7 63.5 27.9 10.2 102.7 30.1 102.7 110.6 0 97.9-81.2 139.7-167.8 139.7-86.6 0-137.8-32.2-137.8-32.2s13.4-47.5 16.2-56.9c2.5-8.4 12.3-11.4 18.5-9 22.3 8.6 62.5 20.6 108 20.6 46.1 0 68.3-14.1 68.3-44.1 0-39.9-62.2-52.2-103.3-65.1-28.3-8.9-103.4-29.8-103.4-118.4 0-87.3 76.6-128.2 158.4-128.2 69.3 0 103.2 14.5 128.6 27.4l-16.2 56.7c-2.5 8.6-9.7 12.6-18.6 9.7zm-1144-79.5c0-9.4-8.1-14.8-15.7-14-34 3.9-58.2 19.9-73.9 34.8-30.8-24.2-73.6-35.7-121.5-35.7-96.2 0-171.4 46.5-171.4 147.8 0 58.2 24.7 98.3 64 121.9-29.2 13.8-48.6 43.2-48.6 72 0 48.2 38.1 63.4 38.1 63.4s-66.6 32.4-66.6 97.1c0 82.9 76.2 116.4 169.2 116.4 134.2 0 226.5-55.5 226.5-157.3 0-62.7-47.9-97.3-152.3-101.4-62-2.4-102.1-4.7-112-8-13.1-4.4-19.6-14.9-19.6-26.5 0-12.8 10.5-25.1 27.1-33.4 14.5 2.6 29.8 3.8 45.6 3.8 96.3 0 171.4-46.3 171.4-147.8 0-24.6-4.4-46-12.5-64.2 14.1-7.6 31.6-12.9 52.3-12.9-.1-.1-.1-47.4-.1-56zM747.7 616.1s50.5 1.9 101 4.3c56.7 2.6 74.4 14.9 74.4 44.3 0 35.9-49.3 70.9-118.2 70.9-65.4 0-98-22.8-98-60.7 0-21.9 11.5-46.2 40.8-58.8zm54.1-203.7c-45.6 0-81.1-24.2-81.1-77.1s35.6-77.1 81.1-77.1c45.6 0 81.1 24.2 81.1 77.1.1 53-35.5 77.1-81.1 77.1z" fill="#0068a0" stroke="#030303" stroke-miterlimit="10"/></svg>